# xmcd
#
# Track frame offsets:
#	150
#	14967
#	29639
#	45106
#	63742
#	78894
#	96071
#	113022
#	127050
#	144226
#	158844
#	174542
#	189330
#	203742
#	221162
#	222064
#	222982
#	223927
#	225115
#	226117
#	227015
#	227954
#	228858
#	229797
#	230820
#	231957
#	232927
#	233907
#	234850
#	235789
#	236642
#	237509
#	238403
#	239467
#	240430
#	241295
#	242120
#	243010
#	243963
#	244949
#	246313
#	247321
#	248274
#	249335
#
# Disc length: 3332 seconds
#
# Revision: 0
# Processed by: cddbd v1.5.2PL0 Copyright (c) Steve Scherf et al.
# Submitted via: audiograbber 1.83.01
#
DISCID=570d022c
DTITLE=Various Artist - CDX 621
DYEAR=2015
DGENRE=Country
TTITLE0=Little Big Town - Pain Killer 
TTITLE1=Michael Ray - Real Men Love Jesus
TTITLE2=Scotty McCreery - Southern Belle 
TTITLE3=Luke Bryan - Strip It Down 
TTITLE4=Ashley Gearing - Train Track
TTITLE5=Broseph E Lee - Fill 'Em On Up
TTITLE6=Shawn O'Shields - Guitars, Guns And God
TTITLE7=Southern Halo - Little White Dress
TTITLE8=Leanne Weiss - Momentum
TTITLE9=Emily Haines - Outside In
TTITLE10=Emily Vance - Serendipity
TTITLE11=Jake Clayton - What Not To Do
TTITLE12=Gord Bamford - Lips Are So Close
TTITLE13=Holly Spears - Who Said
TTITLE14=JB And The Moonshine Band - Home Town Country (Liner)
TTITLE15=JB And The Moonshine Band - Kickin' Country (Liner)
TTITLE16=JB And The Moonshine Band - More of the Country You Love (Liner)
TTITLE17=JB And The Moonshine Band - Our New Single (Liner)
TTITLE18=JB And The Moonshine Band - Super Country (Liner)
TTITLE19=JB And The Moonshine Band - Today's Best Country (Liner)
TTITLE20=JB And The Moonshine Band - Today's Hot Country (Liner)
TTITLE21=Macy Martin - Home Town Country (Liner)
TTITLE22=Macy Martin - Kickin' Country (Liner)
TTITLE23=Macy Martin - More of the Country You Love (Liner)
TTITLE24=Macy Martin - My New Single (Liner)
TTITLE25=Macy Martin - Super Country (Liner)
TTITLE26=Macy Martin - The Best In Country Music (Liner)
TTITLE27=Macy Martin - Today's Best Country (Liner)
TTITLE28=Macy Martin - Today's Hot Country Music (Liner)
TTITLE29=Adam Searan - Home Town Country (Liner)
TTITLE30=Adam Searan - Kickin' Country (Liner)
TTITLE31=Adam Searan - More of the Country You Love (Liner)
TTITLE32=Adam Searan - My New Single (Liner)
TTITLE33=Adam Searan - Super Country (Liner)
TTITLE34=Adam Searan - The Best In Country Music (Liner)
TTITLE35=Adam Searan - Today's Best Country (Liner)
TTITLE36=Adam Searan - Today's Hot Country (Liner)
TTITLE37=Southern Halo - Home Town Country (Liner)
TTITLE38=Southern Halo - More of the Country You Love (Liner)
TTITLE39=Southern Halo - Our New Single (Liner)
TTITLE40=Southern Halo - Super Country (Liner)
TTITLE41=Southern Halo - The Best In Country Music (Liner)
TTITLE42=Southern Halo - Today's Best Country (Liner)
TTITLE43=Southern Halo - Today's Hot Country (Liner)
EXTD=
EXTT0=
EXTT1=
EXTT2=
EXTT3=
EXTT4=
EXTT5=
EXTT6=
EXTT7=
EXTT8=
EXTT9=
EXTT10=
EXTT11=
EXTT12=
EXTT13=
EXTT14=
EXTT15=
EXTT16=
EXTT17=
EXTT18=
EXTT19=
EXTT20=
EXTT21=
EXTT22=
EXTT23=
EXTT24=
EXTT25=
EXTT26=
EXTT27=
EXTT28=
EXTT29=
EXTT30=
EXTT31=
EXTT32=
EXTT33=
EXTT34=
EXTT35=
EXTT36=
EXTT37=
EXTT38=
EXTT39=
EXTT40=
EXTT41=
EXTT42=
EXTT43=
PLAYORDER=
